<svg width="176" height="67" viewBox="0 0 176 67" fill="none" xmlns="http://www.w3.org/2000/svg">
<g filter="url(#filter0_df_14_95)">
<path d="M47.5109 38.7395C47.8614 36.696 48.0766 35.2647 50.5928 33.4828C51.014 33.4585 52.8006 33.4229 53.9731 34.1278C55.1456 34.8328 55.6929 36.237 56.6215 37.6276C57.5501 39.0182 57.5037 39.3537 57.3483 41.1677C57.1929 42.9818 56.5364 45.639 55.685 46.9306C54.8336 48.2221 53.6684 48.3128 52.3008 47.8374C50.9332 47.3619 50.121 45.9272 49.0063 44.3206C47.8915 42.714 47.1603 40.783 47.5109 38.7395Z" stroke="#2D7676" stroke-width="3"/>
<path d="M55.7142 24.9268C56.1522 22.8627 58.108 21.7049 58.7174 20.953C59.6065 21.077 61.9796 21.0749 63.2066 21.7874C64.4336 22.4999 64.3868 22.8294 64.8961 24.7302C65.4054 26.631 65.7822 29.3822 65.7532 31.2914C65.7242 33.2006 65.7081 33.4765 64.7511 34.2762C63.7942 35.0759 62.6045 35.8474 60.9685 35.2898C59.3326 34.7321 57.6222 33.5606 56.5713 31.488C55.5205 29.4154 55.2762 26.9909 55.7142 24.9268Z" stroke="#2D7676" stroke-width="3"/>
<path d="M69.2991 17.5042C70.1604 16.3243 70.9266 17.0681 71.3335 16.9591C72.163 17.1251 74.2729 16.8618 75.4809 17.7893C76.6888 18.7168 77.0732 19.1746 77.3732 21.5966C77.6733 24.0185 77.8087 27.7788 76.9812 29.8988C76.1538 32.0188 74.914 32.4373 73.2359 32.1967C71.5579 31.956 69.8327 30.5631 68.5909 28.6955C67.3491 26.828 66.8854 25.0971 67.027 22.8588C67.1686 20.6206 68.4378 18.6842 69.2991 17.5042Z" stroke="#2D7676" stroke-width="3"/>
<path d="M87.4204 26.7212C86.6074 25.3163 85.7459 25.6863 85.3273 25.4275C84.7102 25.732 83.3844 25.0208 82.2421 26.9497C81.0997 28.8785 79.9437 32.712 79.6155 35.0718C79.2872 37.4316 79.8281 37.6576 80.6007 38.7488C81.3734 39.84 82.2514 40.3465 83.4788 40.5276C84.7063 40.7088 85.5551 41.2695 86.7379 39.6544C87.9206 38.0393 89.2561 35.0386 89.3926 32.452C89.5291 29.8654 88.2335 28.1261 87.4204 26.7212Z" stroke="#2D7676" stroke-width="3"/>
<path d="M69.522 37.2058C67.3193 36.3818 66.6958 38.4934 65.9893 38.8153C64.9488 40.6851 59.7385 49.0196 58.6436 52.495C57.5488 55.9703 59.7979 55.3234 60.5151 56.1919C61.2323 57.0604 62.269 57.313 64.6003 56.6441C66.9316 55.9752 68.0623 53.9487 72.1717 52.8476C76.2811 51.7465 80.3393 51.7197 82.8571 51.0893C85.3749 50.4588 84.4076 50.6296 84.8411 49.4528C85.2745 48.276 85.2311 46.5199 84.9438 45.4478C84.6566 44.3758 84.9124 44.8375 83.3243 44.335C81.7362 43.8325 79.7637 44.361 77.0032 42.9352C74.2428 41.5093 71.7248 38.0298 69.522 37.2058Z" stroke="#2D7676" stroke-width="3"/>
</g>
<mask id="path-6-outside-1_14_95" maskUnits="userSpaceOnUse" x="0" y="6" width="53" height="28" fill="black">
<rect fill="white" y="6" width="53" height="28"/>
<path d="M3.73438 20.4375C3.73438 17.2917 3.78125 14.875 3.875 13.1875H3.85938L1.625 12.8594C1.48958 12.474 1.38542 12.0469 1.3125 11.5781C1.23958 11.1094 1.20312 10.6562 1.20312 10.2188C1.20312 9.88542 1.22917 9.52083 1.28125 9.125C2.5625 8.66667 4.32812 8.32812 6.57812 8.10938C8.82812 7.89062 10.9948 7.78125 13.0781 7.78125C14.6719 7.78125 16.0417 7.90625 17.1875 8.15625C18.3333 8.40625 19.2917 8.97396 20.0625 9.85938C20.8438 10.7344 21.2344 12.0469 21.2344 13.7969C21.2344 14.6719 21.0469 15.6927 20.6719 16.8594C20.3073 18.0156 19.8385 19.1458 19.2656 20.25C18.7031 21.3438 18.1354 22.2292 17.5625 22.9062C16.7188 23.9167 15.7812 24.5104 14.75 24.6875C13.0417 24.9583 11.2344 25.0938 9.32812 25.0938C9.28646 26.1667 9.27083 26.9375 9.28125 27.4062L11.6094 27.25C12.0885 28.0312 12.3542 28.9583 12.4062 30.0312C12.4062 30.0833 12.1719 30.3073 11.7031 30.7031C11.2344 31.099 10.6146 31.4635 9.84375 31.7969C9.08333 32.1302 8.20833 32.2969 7.21875 32.2969C6.23958 32.2969 5.45833 32.0312 4.875 31.5C4.30208 30.9583 4.01562 30.026 4.01562 28.7031C3.83854 26.5365 3.75 23.7865 3.75 20.4531L3.73438 20.4375ZM13.625 20.7031C13.8958 19.5573 14.1198 18.3438 14.2969 17.0625C14.4844 15.7708 14.5885 14.6458 14.6094 13.6875C14.5573 13.5938 14.2917 13.5104 13.8125 13.4375C13.3333 13.3646 12.7135 13.3281 11.9531 13.3281C11.4219 13.3281 10.7604 13.349 9.96875 13.3906C9.875 16.5365 9.75 19.0625 9.59375 20.9688L13.625 20.7031ZM22.3594 22.9219C22.3594 21.1198 22.6615 19.5104 23.2656 18.0938C23.8698 16.6771 24.8021 15.5573 26.0625 14.7344C27.3333 13.901 28.9167 13.4844 30.8125 13.4844C31.8021 13.4844 32.7917 13.6042 33.7812 13.8438C34.7708 14.0729 35.6094 14.4583 36.2969 15C36.9323 15.5104 37.3906 16.1875 37.6719 17.0312C37.9635 17.8646 38.1094 18.7917 38.1094 19.8125C38.1094 20.4896 38.0521 21.1823 37.9375 21.8906C37.8125 22.099 37.5677 22.375 37.2031 22.7188C36.8385 23.0521 36.4115 23.3802 35.9219 23.7031C35.4323 24.026 34.9583 24.276 34.5 24.4531C34.0625 24.4844 33.6094 24.5 33.1406 24.5C32.3177 24.5 31.4844 24.4635 30.6406 24.3906C29.7969 24.3177 29.0573 24.2344 28.4219 24.1406C28.5052 25.026 28.776 25.7969 29.2344 26.4531C29.6927 27.1094 30.4219 27.4375 31.4219 27.4375C31.5156 27.4375 31.6667 27.4271 31.875 27.4062C32.5104 27.3438 33.25 27.1771 34.0938 26.9062C34.9479 26.625 35.7969 26.3021 36.6406 25.9375C37.0365 26.3333 37.3281 26.7292 37.5156 27.125C37.7031 27.5208 37.8333 28.0885 37.9062 28.8281C37.5833 29.2031 37.0573 29.6615 36.3281 30.2031C35.6094 30.7448 34.7292 31.2344 33.6875 31.6719C32.6458 32.099 31.5573 32.3125 30.4219 32.3125C28.7135 32.3125 27.25 31.901 26.0312 31.0781C24.8229 30.2448 23.9062 29.1198 23.2812 27.7031C22.6667 26.276 22.3594 24.6823 22.3594 22.9219ZM32.4219 19.3281C32.276 19.1719 32.0312 19.0521 31.6875 18.9688C31.3438 18.875 30.9844 18.8281 30.6094 18.8281C30.3073 18.8281 30 18.8542 29.6875 18.9062C29.3854 18.9583 29.2031 19.0156 29.1406 19.0781C28.7865 19.776 28.5625 20.5677 28.4688 21.4531L32.6406 21.0469L32.4219 19.3281ZM41.4531 23.375C41.4531 21.6771 41.4792 20.1302 41.5312 18.7344L39.8281 18.4375C39.6927 17.9167 39.599 17.4583 39.5469 17.0625C39.4948 16.6667 39.4688 16.2448 39.4688 15.7969L39.5 15.4844C39.5312 15.3385 39.5469 15.2188 39.5469 15.125L41.8125 14.625C41.8646 13.9792 41.9844 13.25 42.1719 12.4375C42.3594 11.625 42.5573 11.026 42.7656 10.6406C43.099 10.3906 43.5 10.2031 43.9688 10.0781C44.4375 9.95312 44.9427 9.89062 45.4844 9.89062C45.9427 9.89062 46.3854 9.9375 46.8125 10.0312C47.25 10.1146 47.6302 10.2292 47.9531 10.375C47.9844 10.7292 48 11.1354 48 11.5938C48 12.3438 47.9635 13.1927 47.8906 14.1406L50.6406 13.6406C51.026 14.3073 51.2188 15.0312 51.2188 15.8125C51.2188 16.3542 51.151 16.8438 51.0156 17.2812C50.8906 17.7188 50.7135 18.2135 50.4844 18.7656C49.7969 18.8802 48.8542 18.9531 47.6562 18.9844C47.5104 20.6823 47.1875 23.1771 46.6875 26.4688L46.6094 27L46.6406 27.0312L50.3125 25.8906C51.0729 26.526 51.5365 27.5052 51.7031 28.8281C51.7031 28.901 51.3646 29.2448 50.6875 29.8594C50.0208 30.4635 49.1823 31.026 48.1719 31.5469C47.1615 32.0573 46.0625 32.3125 44.875 32.3125C42.8021 32.3125 41.6979 31.0469 41.5625 28.5156C41.4896 27.2344 41.4531 25.5208 41.4531 23.375Z"/>
</mask>
<path d="M3.73438 20.4375C3.73438 17.2917 3.78125 14.875 3.875 13.1875H3.85938L1.625 12.8594C1.48958 12.474 1.38542 12.0469 1.3125 11.5781C1.23958 11.1094 1.20312 10.6562 1.20312 10.2188C1.20312 9.88542 1.22917 9.52083 1.28125 9.125C2.5625 8.66667 4.32812 8.32812 6.57812 8.10938C8.82812 7.89062 10.9948 7.78125 13.0781 7.78125C14.6719 7.78125 16.0417 7.90625 17.1875 8.15625C18.3333 8.40625 19.2917 8.97396 20.0625 9.85938C20.8438 10.7344 21.2344 12.0469 21.2344 13.7969C21.2344 14.6719 21.0469 15.6927 20.6719 16.8594C20.3073 18.0156 19.8385 19.1458 19.2656 20.25C18.7031 21.3438 18.1354 22.2292 17.5625 22.9062C16.7188 23.9167 15.7812 24.5104 14.75 24.6875C13.0417 24.9583 11.2344 25.0938 9.32812 25.0938C9.28646 26.1667 9.27083 26.9375 9.28125 27.4062L11.6094 27.25C12.0885 28.0312 12.3542 28.9583 12.4062 30.0312C12.4062 30.0833 12.1719 30.3073 11.7031 30.7031C11.2344 31.099 10.6146 31.4635 9.84375 31.7969C9.08333 32.1302 8.20833 32.2969 7.21875 32.2969C6.23958 32.2969 5.45833 32.0312 4.875 31.5C4.30208 30.9583 4.01562 30.026 4.01562 28.7031C3.83854 26.5365 3.75 23.7865 3.75 20.4531L3.73438 20.4375ZM13.625 20.7031C13.8958 19.5573 14.1198 18.3438 14.2969 17.0625C14.4844 15.7708 14.5885 14.6458 14.6094 13.6875C14.5573 13.5938 14.2917 13.5104 13.8125 13.4375C13.3333 13.3646 12.7135 13.3281 11.9531 13.3281C11.4219 13.3281 10.7604 13.349 9.96875 13.3906C9.875 16.5365 9.75 19.0625 9.59375 20.9688L13.625 20.7031ZM22.3594 22.9219C22.3594 21.1198 22.6615 19.5104 23.2656 18.0938C23.8698 16.6771 24.8021 15.5573 26.0625 14.7344C27.3333 13.901 28.9167 13.4844 30.8125 13.4844C31.8021 13.4844 32.7917 13.6042 33.7812 13.8438C34.7708 14.0729 35.6094 14.4583 36.2969 15C36.9323 15.5104 37.3906 16.1875 37.6719 17.0312C37.9635 17.8646 38.1094 18.7917 38.1094 19.8125C38.1094 20.4896 38.0521 21.1823 37.9375 21.8906C37.8125 22.099 37.5677 22.375 37.2031 22.7188C36.8385 23.0521 36.4115 23.3802 35.9219 23.7031C35.4323 24.026 34.9583 24.276 34.5 24.4531C34.0625 24.4844 33.6094 24.5 33.1406 24.5C32.3177 24.5 31.4844 24.4635 30.6406 24.3906C29.7969 24.3177 29.0573 24.2344 28.4219 24.1406C28.5052 25.026 28.776 25.7969 29.2344 26.4531C29.6927 27.1094 30.4219 27.4375 31.4219 27.4375C31.5156 27.4375 31.6667 27.4271 31.875 27.4062C32.5104 27.3438 33.25 27.1771 34.0938 26.9062C34.9479 26.625 35.7969 26.3021 36.6406 25.9375C37.0365 26.3333 37.3281 26.7292 37.5156 27.125C37.7031 27.5208 37.8333 28.0885 37.9062 28.8281C37.5833 29.2031 37.0573 29.6615 36.3281 30.2031C35.6094 30.7448 34.7292 31.2344 33.6875 31.6719C32.6458 32.099 31.5573 32.3125 30.4219 32.3125C28.7135 32.3125 27.25 31.901 26.0312 31.0781C24.8229 30.2448 23.9062 29.1198 23.2812 27.7031C22.6667 26.276 22.3594 24.6823 22.3594 22.9219ZM32.4219 19.3281C32.276 19.1719 32.0312 19.0521 31.6875 18.9688C31.3438 18.875 30.9844 18.8281 30.6094 18.8281C30.3073 18.8281 30 18.8542 29.6875 18.9062C29.3854 18.9583 29.2031 19.0156 29.1406 19.0781C28.7865 19.776 28.5625 20.5677 28.4688 21.4531L32.6406 21.0469L32.4219 19.3281ZM41.4531 23.375C41.4531 21.6771 41.4792 20.1302 41.5312 18.7344L39.8281 18.4375C39.6927 17.9167 39.599 17.4583 39.5469 17.0625C39.4948 16.6667 39.4688 16.2448 39.4688 15.7969L39.5 15.4844C39.5312 15.3385 39.5469 15.2188 39.5469 15.125L41.8125 14.625C41.8646 13.9792 41.9844 13.25 42.1719 12.4375C42.3594 11.625 42.5573 11.026 42.7656 10.6406C43.099 10.3906 43.5 10.2031 43.9688 10.0781C44.4375 9.95312 44.9427 9.89062 45.4844 9.89062C45.9427 9.89062 46.3854 9.9375 46.8125 10.0312C47.25 10.1146 47.6302 10.2292 47.9531 10.375C47.9844 10.7292 48 11.1354 48 11.5938C48 12.3438 47.9635 13.1927 47.8906 14.1406L50.6406 13.6406C51.026 14.3073 51.2188 15.0312 51.2188 15.8125C51.2188 16.3542 51.151 16.8438 51.0156 17.2812C50.8906 17.7188 50.7135 18.2135 50.4844 18.7656C49.7969 18.8802 48.8542 18.9531 47.6562 18.9844C47.5104 20.6823 47.1875 23.1771 46.6875 26.4688L46.6094 27L46.6406 27.0312L50.3125 25.8906C51.0729 26.526 51.5365 27.5052 51.7031 28.8281C51.7031 28.901 51.3646 29.2448 50.6875 29.8594C50.0208 30.4635 49.1823 31.026 48.1719 31.5469C47.1615 32.0573 46.0625 32.3125 44.875 32.3125C42.8021 32.3125 41.6979 31.0469 41.5625 28.5156C41.4896 27.2344 41.4531 25.5208 41.4531 23.375Z" fill="#D6F2F2"/>
<path d="M3.73438 20.4375H2.73438V20.8517L3.02727 21.1446L3.73438 20.4375ZM3.875 13.1875L4.87346 13.243L4.9321 12.1875H3.875V13.1875ZM3.85938 13.1875L3.71408 14.1769L3.78634 14.1875H3.85938V13.1875ZM1.625 12.8594L0.68154 13.1909L0.881847 13.761L1.47971 13.8488L1.625 12.8594ZM1.3125 11.5781L0.324384 11.7318L1.3125 11.5781ZM1.28125 9.125L0.944429 8.18343L0.369458 8.38911L0.289796 8.99455L1.28125 9.125ZM20.0625 9.85938L19.3082 10.516L19.3166 10.5254L20.0625 9.85938ZM20.6719 16.8594L19.7198 16.5534L19.7182 16.5587L20.6719 16.8594ZM19.2656 20.25L18.378 19.7894L18.3763 19.7927L19.2656 20.25ZM17.5625 22.9062L16.7991 22.2603L16.7949 22.2653L17.5625 22.9062ZM14.75 24.6875L14.9066 25.6752L14.9192 25.6731L14.75 24.6875ZM9.32812 25.0938V24.0938H8.36621L8.32888 25.0549L9.32812 25.0938ZM9.28125 27.4062L8.2815 27.4285L8.30473 28.474L9.34821 28.404L9.28125 27.4062ZM11.6094 27.25L12.4618 26.7272L12.1457 26.2118L11.5424 26.2522L11.6094 27.25ZM12.4062 30.0312H13.4062V30.007L13.4051 29.9828L12.4062 30.0312ZM11.7031 30.7031L11.0579 29.9391L11.7031 30.7031ZM9.84375 31.7969L9.44683 30.879L9.44227 30.881L9.84375 31.7969ZM4.875 31.5L4.18799 32.2266L4.19477 32.2331L4.20167 32.2393L4.875 31.5ZM4.01562 28.7031H5.01562V28.6623L5.0123 28.6217L4.01562 28.7031ZM3.75 20.4531H4.75V20.0389L4.45711 19.746L3.75 20.4531ZM13.625 20.7031L13.6907 21.701L14.4282 21.6524L14.5982 20.9332L13.625 20.7031ZM14.2969 17.0625L13.3072 16.9188L13.3063 16.9256L14.2969 17.0625ZM14.6094 13.6875L15.6091 13.7092L15.615 13.4385L15.4835 13.2019L14.6094 13.6875ZM9.96875 13.3906L9.91619 12.392L8.99662 12.4404L8.96919 13.3608L9.96875 13.3906ZM9.59375 20.9688L8.59709 20.8871L8.50236 22.0428L9.6595 21.9666L9.59375 20.9688ZM4.73438 20.4375C4.73438 17.2973 4.78126 14.9025 4.87346 13.243L2.87654 13.132C2.78124 14.8475 2.73438 17.286 2.73438 20.4375H4.73438ZM3.875 12.1875H3.85938V14.1875H3.875V12.1875ZM4.00467 12.1981L1.77029 11.87L1.47971 13.8488L3.71408 14.1769L4.00467 12.1981ZM2.56846 12.5279C2.45627 12.2086 2.36559 11.8421 2.30062 11.4244L0.324384 11.7318C0.405246 12.2517 0.522892 12.7393 0.68154 13.1909L2.56846 12.5279ZM2.30062 11.4244C2.23495 11.0023 2.20312 10.6007 2.20312 10.2188H0.203125C0.203125 10.7118 0.244212 11.2164 0.324384 11.7318L2.30062 11.4244ZM2.20312 10.2188C2.20312 9.93656 2.22524 9.61619 2.2727 9.25545L0.289796 8.99455C0.233095 9.42547 0.203125 9.83427 0.203125 10.2188H2.20312ZM1.61807 10.0666C2.78772 9.64816 4.46054 9.31997 6.67489 9.10468L6.48136 7.11407C4.19571 7.33628 2.33728 7.68517 0.944429 8.18343L1.61807 10.0666ZM6.67489 9.10468C8.89541 8.8888 11.0297 8.78125 13.0781 8.78125V6.78125C10.9599 6.78125 8.76084 6.89245 6.48136 7.11407L6.67489 9.10468ZM13.0781 8.78125C14.6239 8.78125 15.9184 8.90288 16.9743 9.13327L17.4007 7.17923C16.1649 6.90962 14.7199 6.78125 13.0781 6.78125V8.78125ZM16.9743 9.13327C17.9098 9.33737 18.6785 9.7926 19.3083 10.516L20.8167 9.20276C19.9048 8.15531 18.7568 7.47513 17.4007 7.17923L16.9743 9.13327ZM19.3166 10.5254C19.8699 11.1451 20.2344 12.1748 20.2344 13.7969H22.2344C22.2344 11.9189 21.8176 10.3237 20.8084 9.19336L19.3166 10.5254ZM20.2344 13.7969C20.2344 14.5357 20.0748 15.4492 19.7198 16.5534L21.6239 17.1654C22.019 15.9362 22.2344 14.8081 22.2344 13.7969H20.2344ZM19.7182 16.5587C19.3714 17.6584 18.925 18.7352 18.378 19.7894L20.1533 20.7106C20.7521 19.5565 21.2432 18.3729 21.6256 17.1601L19.7182 16.5587ZM18.3763 19.7927C17.8363 20.8428 17.3083 21.6585 16.7991 22.2603L18.3259 23.5522C18.9625 22.7998 19.57 21.8447 20.1549 20.7073L18.3763 19.7927ZM16.7949 22.2653C16.0629 23.1419 15.3225 23.5746 14.5808 23.7019L14.9192 25.6731C16.24 25.4463 17.3746 24.6915 18.3301 23.5472L16.7949 22.2653ZM14.5934 23.6998C12.9418 23.9617 11.1872 24.0938 9.32812 24.0938V26.0938C11.2816 26.0938 13.1415 25.955 14.9066 25.6752L14.5934 23.6998ZM8.32888 25.0549C8.28716 26.1291 8.27034 26.9265 8.2815 27.4285L10.281 27.384C10.2713 26.9485 10.2858 26.2042 10.3274 25.1326L8.32888 25.0549ZM9.34821 28.404L11.6763 28.2478L11.5424 26.2522L9.21429 26.4085L9.34821 28.404ZM10.7569 27.7728C11.1342 28.3879 11.3621 29.1457 11.4074 30.0797L13.4051 29.9828C13.3462 28.7709 13.0429 27.6746 12.4618 26.7272L10.7569 27.7728ZM11.4062 30.0312C11.4062 29.8596 11.4513 29.7311 11.4745 29.6731C11.5007 29.6071 11.5286 29.5591 11.544 29.5341C11.5743 29.4849 11.5994 29.4561 11.6 29.4553C11.6041 29.4504 11.5894 29.4677 11.5396 29.5153C11.445 29.6057 11.2878 29.745 11.0579 29.9391L12.3483 31.4672C12.5872 31.2654 12.7816 31.0948 12.9213 30.9613C12.9888 30.8968 13.0619 30.8237 13.1246 30.7498C13.1545 30.7145 13.2016 30.6565 13.2465 30.5836C13.2629 30.5569 13.4062 30.3395 13.4062 30.0312H11.4062ZM11.0579 29.9391C10.6858 30.2534 10.1585 30.5713 9.44684 30.879L10.2407 32.7147C11.0707 32.3558 11.783 31.9446 12.3483 31.4672L11.0579 29.9391ZM9.44227 30.881C8.83031 31.1493 8.09621 31.2969 7.21875 31.2969V33.2969C8.32045 33.2969 9.33635 33.1112 10.2452 32.7127L9.44227 30.881ZM7.21875 31.2969C6.42598 31.2969 5.9059 31.0863 5.54833 30.7607L4.20167 32.2393C5.01077 32.9762 6.05319 33.2969 7.21875 33.2969V31.2969ZM5.56201 30.7734C5.2888 30.515 5.01562 29.9283 5.01562 28.7031H3.01562C3.01562 30.1238 3.31537 31.4016 4.18799 32.2266L5.56201 30.7734ZM5.0123 28.6217C4.83827 26.4923 4.75 23.7719 4.75 20.4531H2.75C2.75 23.801 2.83881 26.5806 3.01895 28.7846L5.0123 28.6217ZM4.45711 19.746L4.44148 19.7304L3.02727 21.1446L3.04289 21.1602L4.45711 19.746ZM14.5982 20.9332C14.877 19.7537 15.1065 18.5089 15.2875 17.1994L13.3063 16.9256C13.1331 18.1786 12.9147 19.3608 12.6518 20.4731L14.5982 20.9332ZM15.2865 17.2062C15.4779 15.8874 15.5872 14.7199 15.6091 13.7092L13.6096 13.6658C13.5899 14.5717 13.4908 15.6542 13.3072 16.9188L15.2865 17.2062ZM15.4835 13.2019C15.337 12.9382 15.1193 12.8026 15.0171 12.7457C14.8953 12.6777 14.7715 12.6323 14.6704 12.6005C14.4661 12.5364 14.2219 12.4883 13.9629 12.4489L13.6621 14.4261C13.7682 14.4423 13.8557 14.458 13.9265 14.4728C13.9985 14.4879 14.0451 14.5005 14.0718 14.5088C14.1035 14.5188 14.0858 14.5163 14.0434 14.4926C14.0207 14.4799 13.9772 14.4537 13.926 14.4094C13.8756 14.3659 13.7999 14.2895 13.7352 14.1731L15.4835 13.2019ZM13.9629 12.4489C13.4143 12.3654 12.739 12.3281 11.9531 12.3281V14.3281C12.6881 14.3281 13.2524 14.3638 13.6621 14.4261L13.9629 12.4489ZM11.9531 12.3281C11.3981 12.3281 10.7178 12.3498 9.91619 12.392L10.0213 14.3892C10.8031 14.3481 11.4456 14.3281 11.9531 14.3281V12.3281ZM8.96919 13.3608C8.87568 16.4988 8.75132 19.0055 8.59709 20.8871L10.5904 21.0504C10.7487 19.1195 10.8743 16.5741 10.9683 13.4204L8.96919 13.3608ZM9.6595 21.9666L13.6907 21.701L13.5593 19.7053L9.528 19.9709L9.6595 21.9666ZM26.0625 14.7344L26.6092 15.5717L26.6109 15.5706L26.0625 14.7344ZM33.7812 13.8438L33.5459 14.8157L33.5556 14.818L33.7812 13.8438ZM36.2969 15L36.9232 14.2203L36.9157 14.2145L36.2969 15ZM37.6719 17.0312L36.7232 17.3475L36.7256 17.3546L36.728 17.3616L37.6719 17.0312ZM37.9375 21.8906L38.795 22.4051L38.894 22.2402L38.9247 22.0503L37.9375 21.8906ZM37.2031 22.7188L37.8779 23.4568L37.8836 23.4516L37.8891 23.4463L37.2031 22.7188ZM35.9219 23.7031L35.3713 22.8684L35.9219 23.7031ZM34.5 24.4531L34.5712 25.4506L34.7207 25.4399L34.8604 25.3859L34.5 24.4531ZM28.4219 24.1406L28.5678 23.1513L27.3068 22.9653L27.4263 24.2343L28.4219 24.1406ZM29.2344 26.4531L28.4145 27.0257L29.2344 26.4531ZM31.875 27.4062L31.7771 26.4111L31.7755 26.4112L31.875 27.4062ZM34.0938 26.9062L34.3994 27.8584L34.4065 27.8561L34.0938 26.9062ZM36.6406 25.9375L37.3477 25.2304L36.8675 24.7501L36.244 25.0195L36.6406 25.9375ZM37.9062 28.8281L38.664 29.4806L38.9434 29.1562L38.9014 28.73L37.9062 28.8281ZM36.3281 30.2031L35.7318 29.4004L35.7263 29.4045L36.3281 30.2031ZM33.6875 31.6719L34.0669 32.5972L34.0747 32.5939L33.6875 31.6719ZM26.0312 31.0781L25.4635 31.9014L25.4717 31.9069L26.0312 31.0781ZM23.2812 27.7031L22.3628 28.0987L22.3663 28.1068L23.2812 27.7031ZM32.4219 19.3281L33.4139 19.2019L33.3731 18.8817L33.1529 18.6458L32.4219 19.3281ZM31.6875 18.9688L31.4244 19.9335L31.4381 19.9373L31.4519 19.9406L31.6875 18.9688ZM29.6875 18.9062L29.5231 17.9198L29.5176 17.9208L29.6875 18.9062ZM29.1406 19.0781L28.4335 18.371L28.3209 18.4836L28.2489 18.6256L29.1406 19.0781ZM28.4688 21.4531L27.4743 21.3478L27.3452 22.5673L28.5657 22.4484L28.4688 21.4531ZM32.6406 21.0469L32.7375 22.0422L33.7627 21.9423L33.6326 20.9206L32.6406 21.0469ZM23.3594 22.9219C23.3594 21.232 23.6424 19.7594 24.1855 18.486L22.3458 17.7015C21.6805 19.2614 21.3594 21.0076 21.3594 22.9219H23.3594ZM24.1855 18.486C24.7139 17.2469 25.5185 16.2838 26.6092 15.5717L25.5158 13.897C24.0857 14.8308 23.0257 16.1073 22.3458 17.7015L24.1855 18.486ZM26.6109 15.5706C27.6826 14.8678 29.0632 14.4844 30.8125 14.4844V12.4844C28.7701 12.4844 26.984 12.9343 25.5141 13.8981L26.6109 15.5706ZM30.8125 14.4844C31.7205 14.4844 32.6312 14.5942 33.5459 14.8157L34.0166 12.8718C32.9522 12.6141 31.8836 12.4844 30.8125 12.4844V14.4844ZM33.5556 14.818C34.4248 15.0192 35.1233 15.3484 35.678 15.7855L36.9157 14.2145C36.0955 13.5682 35.1169 13.1266 34.0069 12.8695L33.5556 14.818ZM35.6706 15.7796C36.1427 16.1588 36.4969 16.6687 36.7232 17.3475L38.6206 16.715C38.2843 15.7063 37.7219 14.862 36.9231 14.2204L35.6706 15.7796ZM36.728 17.3616C36.9772 18.0736 37.1094 18.8869 37.1094 19.8125H39.1094C39.1094 18.6964 38.9499 17.6556 38.6157 16.7009L36.728 17.3616ZM37.1094 19.8125C37.1094 20.433 37.0569 21.0723 36.9503 21.7309L38.9247 22.0503C39.0473 21.2923 39.1094 20.5461 39.1094 19.8125H37.1094ZM37.08 21.3761C37.0295 21.4603 36.87 21.6584 36.5171 21.9912L37.8891 23.4463C38.2654 23.0916 38.5955 22.7376 38.795 22.4051L37.08 21.3761ZM36.5284 21.9807C36.2089 22.2728 35.8249 22.5692 35.3713 22.8684L36.4725 24.5379C36.9981 24.1912 37.4681 23.8314 37.8779 23.4568L36.5284 21.9807ZM35.3713 22.8684C34.9303 23.1592 34.5199 23.3734 34.1396 23.5203L34.8604 25.3859C35.3968 25.1787 35.9343 24.8929 36.4725 24.5379L35.3713 22.8684ZM34.4288 23.4557C34.0165 23.4851 33.5872 23.5 33.1406 23.5V25.5C33.6315 25.5 34.1085 25.4836 34.5712 25.4506L34.4288 23.4557ZM33.1406 23.5C32.3473 23.5 31.5427 23.4649 30.7267 23.3943L30.5545 25.3869C31.4261 25.4622 32.2881 25.5 33.1406 25.5V23.5ZM30.7267 23.3943C29.8971 23.3226 29.1783 23.2414 28.5678 23.1513L28.2759 25.1299C28.9363 25.2274 29.6966 25.3128 30.5545 25.3869L30.7267 23.3943ZM27.4263 24.2343C27.524 25.2723 27.8465 26.2124 28.4145 27.0257L30.0542 25.8805C29.7055 25.3813 29.4864 24.7797 29.4175 24.0469L27.4263 24.2343ZM28.4145 27.0257C29.1068 28.017 30.1867 28.4375 31.4219 28.4375V26.4375C30.657 26.4375 30.2786 26.2018 30.0542 25.8805L28.4145 27.0257ZM31.4219 28.4375C31.5694 28.4375 31.7632 28.4224 31.9745 28.4013L31.7755 26.4112C31.5701 26.4317 31.4618 26.4375 31.4219 26.4375V28.4375ZM31.9729 28.4014C32.7001 28.3299 33.512 28.1432 34.3994 27.8584L33.7881 25.9541C32.988 26.2109 32.3207 26.3576 31.7771 26.4111L31.9729 28.4014ZM34.4065 27.8561C35.2897 27.5653 36.1667 27.2317 37.0373 26.8555L36.244 25.0195C35.4271 25.3725 34.6061 25.6847 33.781 25.9564L34.4065 27.8561ZM35.9335 26.6446C36.2698 26.9809 36.485 27.2851 36.6119 27.5531L38.4194 26.6969C38.1713 26.1732 37.8032 25.6858 37.3477 25.2304L35.9335 26.6446ZM36.6119 27.5531C36.7275 27.7972 36.8427 28.2329 36.9111 28.9262L38.9014 28.73C38.824 27.9442 38.6787 27.2444 38.4194 26.6969L36.6119 27.5531ZM37.1485 28.1756C36.8981 28.4664 36.4421 28.8727 35.7318 29.4004L36.9244 31.0059C37.6724 30.4502 38.2686 29.9398 38.664 29.4806L37.1485 28.1756ZM35.7263 29.4045C35.088 29.8856 34.284 30.3367 33.3003 30.7499L34.0747 32.5939C35.1743 32.132 36.1308 31.604 36.93 31.0017L35.7263 29.4045ZM33.3081 30.7466C32.3879 31.1239 31.4283 31.3125 30.4219 31.3125V33.3125C31.6863 33.3125 32.9038 33.074 34.0669 32.5971L33.3081 30.7466ZM30.4219 31.3125C28.8799 31.3125 27.6189 30.9435 26.5908 30.2494L25.4717 31.9069C26.8811 32.8586 28.5472 33.3125 30.4219 33.3125V31.3125ZM26.599 30.2549C25.5515 29.5325 24.7508 28.5566 24.1962 27.2995L22.3663 28.1068C23.0617 29.683 24.0944 30.9571 25.4635 31.9013L26.599 30.2549ZM24.1997 27.3076C23.6456 26.021 23.3594 24.5643 23.3594 22.9219H21.3594C21.3594 24.8003 21.6877 26.5311 22.3628 28.0987L24.1997 27.3076ZM33.1529 18.6458C32.8124 18.281 32.3448 18.0991 31.9231 17.9969L31.4519 19.9406C31.5729 19.9699 31.648 19.9991 31.6894 20.0193C31.731 20.0397 31.7205 20.0422 31.6908 20.0104L33.1529 18.6458ZM31.9506 18.004C31.5167 17.8857 31.0686 17.8281 30.6094 17.8281V19.8281C30.9002 19.8281 31.1708 19.8643 31.4244 19.9335L31.9506 18.004ZM30.6094 17.8281C30.2496 17.8281 29.8873 17.8592 29.5231 17.9199L29.8519 19.8926C30.1127 19.8492 30.365 19.8281 30.6094 19.8281V17.8281ZM29.5176 17.9208C29.3454 17.9505 29.1756 17.9868 29.0244 18.0343C28.9187 18.0675 28.6498 18.1547 28.4335 18.371L29.8477 19.7852C29.7981 19.8349 29.7525 19.8684 29.7217 19.8888C29.6901 19.9097 29.6646 19.923 29.6495 19.9304C29.6211 19.9443 29.6089 19.947 29.624 19.9423C29.637 19.9382 29.6625 19.931 29.7037 19.9217C29.7442 19.9126 29.795 19.9025 29.8574 19.8917L29.5176 17.9208ZM28.2489 18.6256C27.8326 19.4459 27.5791 20.3579 27.4743 21.3478L29.4632 21.5584C29.5459 20.7775 29.7403 20.1062 30.0324 19.5307L28.2489 18.6256ZM28.5657 22.4484L32.7375 22.0422L32.5437 20.0516L28.3718 20.4578L28.5657 22.4484ZM33.6326 20.9206L33.4139 19.2019L31.4299 19.4544L31.6486 21.1731L33.6326 20.9206ZM41.5312 18.7344L42.5306 18.7717L42.5631 17.8992L41.703 17.7492L41.5312 18.7344ZM39.8281 18.4375L38.8603 18.6891L39.0223 19.3121L39.6564 19.4226L39.8281 18.4375ZM39.4688 15.7969L38.4737 15.6974L38.4688 15.747V15.7969H39.4688ZM39.5 15.4844L38.5222 15.2748L38.5105 15.3294L38.505 15.3849L39.5 15.4844ZM39.5469 15.125L39.3314 14.1485L38.5469 14.3216V15.125H39.5469ZM41.8125 14.625L42.028 15.6015L42.7498 15.4422L42.8093 14.7054L41.8125 14.625ZM42.7656 10.6406L42.1656 9.84062L41.9902 9.9722L41.8859 10.1651L42.7656 10.6406ZM46.8125 10.0312L46.5981 11.008L46.6117 11.011L46.6254 11.0136L46.8125 10.0312ZM47.9531 10.375L48.9493 10.2871L48.8978 9.7044L48.3647 9.46363L47.9531 10.375ZM47.8906 14.1406L46.8936 14.0639L46.7942 15.3564L48.0695 15.1245L47.8906 14.1406ZM50.6406 13.6406L51.5064 13.1401L51.1541 12.5309L50.4617 12.6568L50.6406 13.6406ZM51.0156 17.2812L50.0603 16.9856L50.0571 16.996L50.0541 17.0065L51.0156 17.2812ZM50.4844 18.7656L50.6488 19.752L51.1955 19.6609L51.408 19.149L50.4844 18.7656ZM47.6562 18.9844L47.6302 17.9847L46.7364 18.008L46.6599 18.8988L47.6562 18.9844ZM46.6875 26.4688L45.6988 26.3186L45.6981 26.3233L46.6875 26.4688ZM46.6094 27L45.62 26.8545L45.5469 27.3517L45.9023 27.7071L46.6094 27ZM46.6406 27.0312L45.9335 27.7384L46.3605 28.1654L46.9373 27.9862L46.6406 27.0312ZM50.3125 25.8906L50.9537 25.1233L50.5359 24.7741L50.0158 24.9356L50.3125 25.8906ZM51.7031 28.8281H52.7031V28.7654L52.6953 28.7031L51.7031 28.8281ZM50.6875 29.8594L51.359 30.6004L51.3596 30.5998L50.6875 29.8594ZM48.1719 31.5469L48.6228 32.4395L48.6301 32.4357L48.1719 31.5469ZM41.5625 28.5156L42.5611 28.4622L42.5609 28.4588L41.5625 28.5156ZM42.4531 23.375C42.4531 21.687 42.479 20.1528 42.5306 18.7717L40.5319 18.6971C40.4793 20.1076 40.4531 21.6672 40.4531 23.375H42.4531ZM41.703 17.7492L39.9998 17.4524L39.6564 19.4226L41.3595 19.7195L41.703 17.7492ZM40.7959 18.1859C40.6676 17.6922 40.5836 17.2758 40.5383 16.932L38.5554 17.193C38.6144 17.6409 38.7178 18.1412 38.8603 18.6891L40.7959 18.1859ZM40.5383 16.932C40.4926 16.5843 40.4688 16.2063 40.4688 15.7969H38.4688C38.4688 16.2832 38.497 16.749 38.5554 17.193L40.5383 16.932ZM40.4638 15.8964L40.495 15.5839L38.505 15.3849L38.4737 15.6974L40.4638 15.8964ZM40.4778 15.6939C40.5163 15.5145 40.5469 15.3179 40.5469 15.125H38.5469C38.5469 15.1184 38.5473 15.1273 38.5436 15.1558C38.54 15.1834 38.5334 15.2226 38.5222 15.2748L40.4778 15.6939ZM39.7624 16.1015L42.028 15.6015L41.597 13.6485L39.3314 14.1485L39.7624 16.1015ZM42.8093 14.7054C42.8565 14.1197 42.9668 13.44 43.1463 12.6624L41.1975 12.2126C41.0019 13.06 40.8727 13.8387 40.8157 14.5446L42.8093 14.7054ZM43.1463 12.6624C43.3283 11.8736 43.5024 11.3806 43.6453 11.1161L41.8859 10.1651C41.6122 10.6715 41.3905 11.3764 41.1975 12.2126L43.1463 12.6624ZM43.3656 11.4406C43.5812 11.279 43.8613 11.1417 44.2264 11.0444L43.7111 9.11189C43.1387 9.26453 42.6168 9.50228 42.1656 9.84062L43.3656 11.4406ZM44.2264 11.0444C44.602 10.9442 45.0197 10.8906 45.4844 10.8906V8.89062C44.8657 8.89062 44.273 8.96204 43.7111 9.11189L44.2264 11.0444ZM45.4844 10.8906C45.8741 10.8906 46.2447 10.9304 46.5981 11.008L47.0269 9.05451C46.5261 8.94457 46.0113 8.89062 45.4844 8.89062V10.8906ZM46.6254 11.0136C47.0043 11.0858 47.306 11.18 47.5415 11.2864L48.3647 9.46363C47.9545 9.27835 47.4957 9.1434 46.9996 9.04891L46.6254 11.0136ZM46.957 10.4629C46.9851 10.7809 47 11.1569 47 11.5938H49C49 11.114 48.9837 10.6774 48.9493 10.2871L46.957 10.4629ZM47 11.5938C47 12.3125 46.965 13.1351 46.8936 14.0639L48.8877 14.2173C48.9621 13.2503 49 12.375 49 11.5938H47ZM48.0695 15.1245L50.8195 14.6245L50.4617 12.6568L47.7117 13.1568L48.0695 15.1245ZM49.7749 14.1411C50.071 14.6534 50.2188 15.2043 50.2188 15.8125H52.2188C52.2188 14.8582 51.9811 13.9612 51.5064 13.1401L49.7749 14.1411ZM50.2188 15.8125C50.2188 16.2717 50.1613 16.6595 50.0603 16.9856L51.9709 17.5769C52.1408 17.028 52.2188 16.4366 52.2188 15.8125H50.2188ZM50.0541 17.0065C49.9423 17.3978 49.7795 17.8553 49.5608 18.3822L51.408 19.149C51.6476 18.5718 51.8389 18.0397 51.9771 17.556L50.0541 17.0065ZM50.32 17.7792C49.6993 17.8827 48.8096 17.9539 47.6302 17.9847L47.6823 19.984C48.8987 19.9523 49.8945 19.8777 50.6488 19.752L50.32 17.7792ZM46.6599 18.8988C46.5169 20.5634 46.198 23.0323 45.6988 26.3186L47.6762 26.6189C48.177 23.3219 48.5039 20.8012 48.6526 19.07L46.6599 18.8988ZM45.6981 26.3233L45.62 26.8545L47.5987 27.1455L47.6769 26.6142L45.6981 26.3233ZM45.9023 27.7071L45.9335 27.7384L47.3477 26.3241L47.3165 26.2929L45.9023 27.7071ZM46.9373 27.9862L50.6092 26.8456L50.0158 24.9356L46.344 26.0763L46.9373 27.9862ZM49.6713 26.658C50.1788 27.0821 50.5648 27.7927 50.711 28.9531L52.6953 28.7031C52.5081 27.2177 51.967 25.97 50.9537 25.1233L49.6713 26.658ZM50.7031 28.8281C50.7031 28.6551 50.7494 28.5274 50.7695 28.4765C50.7936 28.4157 50.8184 28.3725 50.8305 28.3525C50.8543 28.3128 50.8712 28.2936 50.8635 28.303C50.8511 28.3183 50.8136 28.3609 50.7367 28.4389C50.5874 28.5906 50.35 28.8152 50.0154 29.1189L51.3596 30.5998C51.7021 30.289 51.9725 30.0344 52.1617 29.8423C52.2541 29.7485 52.3436 29.6531 52.4158 29.5642C52.4504 29.5215 52.499 29.4586 52.544 29.3838C52.558 29.3607 52.7031 29.1378 52.7031 28.8281H50.7031ZM50.016 29.1184C49.428 29.6512 48.6661 30.1671 47.7137 30.658L48.6301 32.4357C49.6984 31.885 50.6137 31.2758 51.359 30.6004L50.016 29.1184ZM47.721 30.6543C46.8573 31.0906 45.9138 31.3125 44.875 31.3125V33.3125C46.2112 33.3125 47.4657 33.024 48.6228 32.4395L47.721 30.6543ZM44.875 31.3125C44.054 31.3125 43.5645 31.0712 43.2457 30.7059C42.8986 30.308 42.6226 29.613 42.5611 28.4622L40.5639 28.569C40.6378 29.9495 40.9816 31.1529 41.7387 32.0207C42.5241 32.921 43.623 33.3125 44.875 33.3125V31.3125ZM42.5609 28.4588C42.4895 27.2048 42.4531 25.5126 42.4531 23.375H40.4531C40.4531 25.529 40.4896 27.2639 40.5641 28.5724L42.5609 28.4588Z" fill="#2D7676" mask="url(#path-6-outside-1_14_95)"/>
<mask id="path-8-outside-2_14_95" maskUnits="userSpaceOnUse" x="90" y="18" width="74" height="28" fill="black">
<rect fill="white" x="90" y="18" width="74" height="28"/>
<path d="M91.625 40.0469C91.625 39.099 91.8177 38.1875 92.2031 37.3125C92.3802 37.3125 92.6562 37.349 93.0312 37.4219C93.4062 37.4844 93.8021 37.5677 94.2188 37.6719C94.1667 35.4323 94.1406 33.2448 94.1406 31.1094C94.1406 28.8073 94.1823 26.8438 94.2656 25.2188H94.25L94.2656 25.0312L91.7188 24.7031C91.5625 24.0677 91.4583 23.5417 91.4062 23.125C91.3542 22.6979 91.3333 22.2083 91.3438 21.6562C91.6771 21.2812 92.1667 20.9531 92.8125 20.6719C93.4688 20.3802 94.1719 20.1615 94.9219 20.0156C95.6823 19.8594 96.375 19.7812 97 19.7812C98.1979 19.7812 99.1302 20.0208 99.7969 20.5C100.474 20.9688 100.859 21.7188 100.953 22.75C100.984 23.1562 101 23.599 101 24.0781C101 25.6615 100.859 27.5365 100.578 29.7031C100.297 31.8698 99.9219 34.401 99.4531 37.2969L99.3281 38.1094L103.312 38.3281L104.938 33.1406C105.427 33.1198 105.984 33.1562 106.609 33.25C107.245 33.3438 107.792 33.474 108.25 33.6406C108.438 34.1302 108.609 34.9115 108.766 35.9844C108.932 37.0469 109.016 38.0885 109.016 39.1094C109.016 40.8073 108.766 42 108.266 42.6875C108.016 43.0208 107.667 43.3125 107.219 43.5625C106.781 43.8021 106.318 43.9844 105.828 44.1094C105.349 44.2448 104.917 44.3125 104.531 44.3125C103.917 44.3125 103.198 44.1823 102.375 43.9219C101.552 43.651 100.745 43.3125 99.9531 42.9062C99.1615 42.4896 98.5104 42.0729 98 41.6562C97.5312 42.4688 96.9896 43.099 96.375 43.5469C95.7604 43.9948 94.9948 44.25 94.0781 44.3125C93.6302 44.2396 93.2188 44.0052 92.8438 43.6094C92.4688 43.2135 92.1719 42.7031 91.9531 42.0781C91.7344 41.4531 91.625 40.776 91.625 40.0469ZM109.953 34.7656C109.953 32.8802 110.255 31.2448 110.859 29.8594C111.464 28.474 112.391 27.401 113.641 26.6406C114.891 25.8698 116.458 25.4844 118.344 25.4844C120.427 25.4844 122.062 25.875 123.25 26.6562C124.438 27.4271 125.266 28.5 125.734 29.875C126.214 31.25 126.453 32.9323 126.453 34.9219C126.453 36.724 126.135 38.3333 125.5 39.75C124.875 41.1562 123.927 42.2708 122.656 43.0938C121.396 43.9062 119.849 44.3125 118.016 44.3125C115.182 44.3125 113.13 43.4427 111.859 41.7031C110.589 39.9531 109.953 37.6406 109.953 34.7656ZM118.656 39.7344C119.188 39.7344 119.51 39.6927 119.625 39.6094C119.865 39.1927 120.047 38.6042 120.172 37.8438C120.297 37.0833 120.359 36.2604 120.359 35.375C120.359 34.5625 120.307 33.8021 120.203 33.0938C120.099 32.375 119.953 31.8125 119.766 31.4062C119.651 31.2708 119.422 31.1719 119.078 31.1094C118.734 31.0365 118.359 31 117.953 31C117.422 31 117.057 31.0573 116.859 31.1719C116.339 32.0677 116.078 33.3125 116.078 34.9062C116.078 35.6562 116.135 36.4219 116.25 37.2031C116.365 37.9844 116.51 38.6927 116.688 39.3281C116.812 39.4635 117.068 39.5677 117.453 39.6406C117.839 39.7031 118.24 39.7344 118.656 39.7344ZM128.141 31.3906C127.984 30.9427 127.859 30.4271 127.766 29.8438C127.672 29.2604 127.625 28.6927 127.625 28.1406C127.896 27.3698 128.365 26.7292 129.031 26.2188C129.708 25.7083 130.536 25.4531 131.516 25.4531C132.453 25.4531 133.208 25.75 133.781 26.3438C134.365 26.9271 134.88 27.8438 135.328 29.0938C135.797 30.4062 136.177 31.9583 136.469 33.75C136.76 35.5417 136.964 37.474 137.078 39.5469L137.531 39.5625C137.99 38.6458 138.385 37.3385 138.719 35.6406C139.052 33.9323 139.224 32.3125 139.234 30.7812L137.281 30.4375C137.146 29.9271 137.052 29.4792 137 29.0938C136.948 28.6979 136.922 28.2656 136.922 27.7969L136.938 27.3594C137.125 27.0885 137.438 26.8073 137.875 26.5156C138.312 26.224 138.833 25.9792 139.438 25.7812C140.052 25.5833 140.693 25.4844 141.359 25.4844C144.047 25.4844 145.391 26.8333 145.391 29.5312C145.391 31.1354 145.104 32.8542 144.531 34.6875C143.958 36.5104 143.13 38.25 142.047 39.9062C140.974 41.5625 139.708 42.9271 138.25 44C137.74 44.2083 137.047 44.3125 136.172 44.3125C135.703 44.3125 135.177 44.2083 134.594 44C134.01 43.8021 133.578 43.5938 133.297 43.375L132.969 42.2812C132.219 39.7396 131.542 37.5521 130.938 35.7188C130.333 33.875 129.781 32.5052 129.281 31.6094L128.141 31.3906ZM146.984 34.9219C146.984 33.1198 147.286 31.5104 147.891 30.0938C148.495 28.6771 149.427 27.5573 150.688 26.7344C151.958 25.901 153.542 25.4844 155.438 25.4844C156.427 25.4844 157.417 25.6042 158.406 25.8438C159.396 26.0729 160.234 26.4583 160.922 27C161.557 27.5104 162.016 28.1875 162.297 29.0312C162.589 29.8646 162.734 30.7917 162.734 31.8125C162.734 32.4896 162.677 33.1823 162.562 33.8906C162.438 34.099 162.193 34.375 161.828 34.7188C161.464 35.0521 161.036 35.3802 160.547 35.7031C160.057 36.026 159.583 36.276 159.125 36.4531C158.688 36.4844 158.234 36.5 157.766 36.5C156.943 36.5 156.109 36.4635 155.266 36.3906C154.422 36.3177 153.682 36.2344 153.047 36.1406C153.13 37.026 153.401 37.7969 153.859 38.4531C154.318 39.1094 155.047 39.4375 156.047 39.4375C156.141 39.4375 156.292 39.4271 156.5 39.4062C157.135 39.3438 157.875 39.1771 158.719 38.9062C159.573 38.625 160.422 38.3021 161.266 37.9375C161.661 38.3333 161.953 38.7292 162.141 39.125C162.328 39.5208 162.458 40.0885 162.531 40.8281C162.208 41.2031 161.682 41.6615 160.953 42.2031C160.234 42.7448 159.354 43.2344 158.312 43.6719C157.271 44.099 156.182 44.3125 155.047 44.3125C153.339 44.3125 151.875 43.901 150.656 43.0781C149.448 42.2448 148.531 41.1198 147.906 39.7031C147.292 38.276 146.984 36.6823 146.984 34.9219ZM157.047 31.3281C156.901 31.1719 156.656 31.0521 156.312 30.9688C155.969 30.875 155.609 30.8281 155.234 30.8281C154.932 30.8281 154.625 30.8542 154.312 30.9062C154.01 30.9583 153.828 31.0156 153.766 31.0781C153.411 31.776 153.188 32.5677 153.094 33.4531L157.266 33.0469L157.047 31.3281Z"/>
</mask>
<path d="M91.625 40.0469C91.625 39.099 91.8177 38.1875 92.2031 37.3125C92.3802 37.3125 92.6562 37.349 93.0312 37.4219C93.4062 37.4844 93.8021 37.5677 94.2188 37.6719C94.1667 35.4323 94.1406 33.2448 94.1406 31.1094C94.1406 28.8073 94.1823 26.8438 94.2656 25.2188H94.25L94.2656 25.0312L91.7188 24.7031C91.5625 24.0677 91.4583 23.5417 91.4062 23.125C91.3542 22.6979 91.3333 22.2083 91.3438 21.6562C91.6771 21.2812 92.1667 20.9531 92.8125 20.6719C93.4688 20.3802 94.1719 20.1615 94.9219 20.0156C95.6823 19.8594 96.375 19.7812 97 19.7812C98.1979 19.7812 99.1302 20.0208 99.7969 20.5C100.474 20.9688 100.859 21.7188 100.953 22.75C100.984 23.1562 101 23.599 101 24.0781C101 25.6615 100.859 27.5365 100.578 29.7031C100.297 31.8698 99.9219 34.401 99.4531 37.2969L99.3281 38.1094L103.312 38.3281L104.938 33.1406C105.427 33.1198 105.984 33.1562 106.609 33.25C107.245 33.3438 107.792 33.474 108.25 33.6406C108.438 34.1302 108.609 34.9115 108.766 35.9844C108.932 37.0469 109.016 38.0885 109.016 39.1094C109.016 40.8073 108.766 42 108.266 42.6875C108.016 43.0208 107.667 43.3125 107.219 43.5625C106.781 43.8021 106.318 43.9844 105.828 44.1094C105.349 44.2448 104.917 44.3125 104.531 44.3125C103.917 44.3125 103.198 44.1823 102.375 43.9219C101.552 43.651 100.745 43.3125 99.9531 42.9062C99.1615 42.4896 98.5104 42.0729 98 41.6562C97.5312 42.4688 96.9896 43.099 96.375 43.5469C95.7604 43.9948 94.9948 44.25 94.0781 44.3125C93.6302 44.2396 93.2188 44.0052 92.8438 43.6094C92.4688 43.2135 92.1719 42.7031 91.9531 42.0781C91.7344 41.4531 91.625 40.776 91.625 40.0469ZM109.953 34.7656C109.953 32.8802 110.255 31.2448 110.859 29.8594C111.464 28.474 112.391 27.401 113.641 26.6406C114.891 25.8698 116.458 25.4844 118.344 25.4844C120.427 25.4844 122.062 25.875 123.25 26.6562C124.438 27.4271 125.266 28.5 125.734 29.875C126.214 31.25 126.453 32.9323 126.453 34.9219C126.453 36.724 126.135 38.3333 125.5 39.75C124.875 41.1562 123.927 42.2708 122.656 43.0938C121.396 43.9062 119.849 44.3125 118.016 44.3125C115.182 44.3125 113.13 43.4427 111.859 41.7031C110.589 39.9531 109.953 37.6406 109.953 34.7656ZM118.656 39.7344C119.188 39.7344 119.51 39.6927 119.625 39.6094C119.865 39.1927 120.047 38.6042 120.172 37.8438C120.297 37.0833 120.359 36.2604 120.359 35.375C120.359 34.5625 120.307 33.8021 120.203 33.0938C120.099 32.375 119.953 31.8125 119.766 31.4062C119.651 31.2708 119.422 31.1719 119.078 31.1094C118.734 31.0365 118.359 31 117.953 31C117.422 31 117.057 31.0573 116.859 31.1719C116.339 32.0677 116.078 33.3125 116.078 34.9062C116.078 35.6562 116.135 36.4219 116.25 37.2031C116.365 37.9844 116.51 38.6927 116.688 39.3281C116.812 39.4635 117.068 39.5677 117.453 39.6406C117.839 39.7031 118.24 39.7344 118.656 39.7344ZM128.141 31.3906C127.984 30.9427 127.859 30.4271 127.766 29.8438C127.672 29.2604 127.625 28.6927 127.625 28.1406C127.896 27.3698 128.365 26.7292 129.031 26.2188C129.708 25.7083 130.536 25.4531 131.516 25.4531C132.453 25.4531 133.208 25.75 133.781 26.3438C134.365 26.9271 134.88 27.8438 135.328 29.0938C135.797 30.4062 136.177 31.9583 136.469 33.75C136.76 35.5417 136.964 37.474 137.078 39.5469L137.531 39.5625C137.99 38.6458 138.385 37.3385 138.719 35.6406C139.052 33.9323 139.224 32.3125 139.234 30.7812L137.281 30.4375C137.146 29.9271 137.052 29.4792 137 29.0938C136.948 28.6979 136.922 28.2656 136.922 27.7969L136.938 27.3594C137.125 27.0885 137.438 26.8073 137.875 26.5156C138.312 26.224 138.833 25.9792 139.438 25.7812C140.052 25.5833 140.693 25.4844 141.359 25.4844C144.047 25.4844 145.391 26.8333 145.391 29.5312C145.391 31.1354 145.104 32.8542 144.531 34.6875C143.958 36.5104 143.13 38.25 142.047 39.9062C140.974 41.5625 139.708 42.9271 138.25 44C137.74 44.2083 137.047 44.3125 136.172 44.3125C135.703 44.3125 135.177 44.2083 134.594 44C134.01 43.8021 133.578 43.5938 133.297 43.375L132.969 42.2812C132.219 39.7396 131.542 37.5521 130.938 35.7188C130.333 33.875 129.781 32.5052 129.281 31.6094L128.141 31.3906ZM146.984 34.9219C146.984 33.1198 147.286 31.5104 147.891 30.0938C148.495 28.6771 149.427 27.5573 150.688 26.7344C151.958 25.901 153.542 25.4844 155.438 25.4844C156.427 25.4844 157.417 25.6042 158.406 25.8438C159.396 26.0729 160.234 26.4583 160.922 27C161.557 27.5104 162.016 28.1875 162.297 29.0312C162.589 29.8646 162.734 30.7917 162.734 31.8125C162.734 32.4896 162.677 33.1823 162.562 33.8906C162.438 34.099 162.193 34.375 161.828 34.7188C161.464 35.0521 161.036 35.3802 160.547 35.7031C160.057 36.026 159.583 36.276 159.125 36.4531C158.688 36.4844 158.234 36.5 157.766 36.5C156.943 36.5 156.109 36.4635 155.266 36.3906C154.422 36.3177 153.682 36.2344 153.047 36.1406C153.13 37.026 153.401 37.7969 153.859 38.4531C154.318 39.1094 155.047 39.4375 156.047 39.4375C156.141 39.4375 156.292 39.4271 156.5 39.4062C157.135 39.3438 157.875 39.1771 158.719 38.9062C159.573 38.625 160.422 38.3021 161.266 37.9375C161.661 38.3333 161.953 38.7292 162.141 39.125C162.328 39.5208 162.458 40.0885 162.531 40.8281C162.208 41.2031 161.682 41.6615 160.953 42.2031C160.234 42.7448 159.354 43.2344 158.312 43.6719C157.271 44.099 156.182 44.3125 155.047 44.3125C153.339 44.3125 151.875 43.901 150.656 43.0781C149.448 42.2448 148.531 41.1198 147.906 39.7031C147.292 38.276 146.984 36.6823 146.984 34.9219ZM157.047 31.3281C156.901 31.1719 156.656 31.0521 156.312 30.9688C155.969 30.875 155.609 30.8281 155.234 30.8281C154.932 30.8281 154.625 30.8542 154.312 30.9062C154.01 30.9583 153.828 31.0156 153.766 31.0781C153.411 31.776 153.188 32.5677 153.094 33.4531L157.266 33.0469L157.047 31.3281Z" fill="#D6F2F2"/>
<path d="M92.2031 37.3125V36.3125H91.5509L91.288 36.9094L92.2031 37.3125ZM93.0312 37.4219L92.8404 38.4035L92.8536 38.4061L92.8669 38.4083L93.0312 37.4219ZM94.2188 37.6719L93.9762 38.642L95.249 38.9602L95.2185 37.6486L94.2188 37.6719ZM94.2656 25.2188L95.2643 25.27L95.3182 24.2188H94.2656V25.2188ZM94.25 25.2188L93.2535 25.1357L93.1632 26.2188H94.25V25.2188ZM94.2656 25.0312L95.2622 25.1143L95.3416 24.1616L94.3934 24.0394L94.2656 25.0312ZM91.7188 24.7031L90.7477 24.9419L90.9113 25.6074L91.591 25.6949L91.7188 24.7031ZM91.4062 23.125L90.4136 23.2461L90.414 23.249L91.4062 23.125ZM91.3438 21.6562L90.5963 20.9919L90.3509 21.268L90.3439 21.6374L91.3438 21.6562ZM92.8125 20.6719L93.2118 21.5887L93.2186 21.5857L92.8125 20.6719ZM94.9219 20.0156L95.1128 20.9973L95.1231 20.9952L94.9219 20.0156ZM99.7969 20.5L99.2132 21.312L99.2204 21.3172L99.2277 21.3222L99.7969 20.5ZM100.953 22.75L101.95 22.6733L101.949 22.6595L100.953 22.75ZM99.4531 37.2969L98.4659 37.1371L98.4648 37.1448L99.4531 37.2969ZM99.3281 38.1094L98.3398 37.9573L98.172 39.0474L99.2733 39.1079L99.3281 38.1094ZM103.312 38.3281L103.258 39.3266L104.034 39.3693L104.267 38.6271L103.312 38.3281ZM104.938 33.1406L104.895 32.1415L104.193 32.1714L103.983 32.8417L104.938 33.1406ZM106.609 33.25L106.461 34.2389L106.463 34.2393L106.609 33.25ZM108.25 33.6406L109.184 33.283L109.021 32.8568L108.592 32.7008L108.25 33.6406ZM108.766 35.9844L107.776 36.1285L107.778 36.1393L108.766 35.9844ZM108.266 42.6875L109.066 43.2875L109.07 43.2816L109.074 43.2757L108.266 42.6875ZM107.219 43.5625L107.699 44.4396L107.706 44.4357L107.219 43.5625ZM105.828 44.1094L105.581 43.1405L105.568 43.1436L105.556 43.1471L105.828 44.1094ZM102.375 43.9219L102.062 44.8718L102.073 44.8753L102.375 43.9219ZM99.9531 42.9062L99.4874 43.7912L99.4966 43.7959L99.9531 42.9062ZM98 41.6562L98.6324 40.8816L97.7214 40.138L97.1338 41.1565L98 41.6562ZM94.0781 44.3125L93.9174 45.2995L94.0312 45.318L94.1461 45.3102L94.0781 44.3125ZM92.625 40.0469C92.625 39.239 92.7883 38.4647 93.1183 37.7156L91.288 36.9094C90.8471 37.9103 90.625 38.9589 90.625 40.0469H92.625ZM92.2031 38.3125C92.2775 38.3125 92.4734 38.3321 92.8404 38.4035L93.2221 36.4403C92.8391 36.3658 92.4829 36.3125 92.2031 36.3125V38.3125ZM92.8669 38.4083C93.2125 38.4659 93.5821 38.5435 93.9762 38.642L94.4613 36.7017C94.022 36.5919 93.6 36.5029 93.1956 36.4355L92.8669 38.4083ZM95.2185 37.6486C95.1666 35.4164 95.1406 33.2367 95.1406 31.1094H93.1406C93.1406 33.2529 93.1668 35.4482 93.219 37.6951L95.2185 37.6486ZM95.1406 31.1094C95.1406 28.818 95.1821 26.8725 95.2643 25.27L93.2669 25.1675C93.1825 26.815 93.1406 28.7966 93.1406 31.1094H95.1406ZM94.2656 24.2188H94.25V26.2188H94.2656V24.2188ZM95.2465 25.3018L95.2622 25.1143L93.2691 24.9482L93.2535 25.1357L95.2465 25.3018ZM94.3934 24.0394L91.8465 23.7113L91.591 25.6949L94.1378 26.0231L94.3934 24.0394ZM92.6898 24.4643C92.5384 23.8484 92.4439 23.3639 92.3985 23.001L90.414 23.249C90.4728 23.7194 90.5866 24.287 90.7477 24.9419L92.6898 24.4643ZM92.3989 23.0039C92.3538 22.6341 92.3338 22.1928 92.3436 21.6751L90.3439 21.6374C90.3329 22.2238 90.3545 22.7617 90.4136 23.2461L92.3989 23.0039ZM92.0912 22.3206C92.2974 22.0886 92.6487 21.8339 93.2118 21.5887L92.4132 19.755C91.6846 20.0724 91.0568 20.4739 90.5963 20.9919L92.0912 22.3206ZM93.2186 21.5857C93.8017 21.3266 94.4321 21.1296 95.1127 20.9972L94.731 19.034C93.9116 19.1933 93.1358 19.4339 92.4064 19.7581L93.2186 21.5857ZM95.1231 20.9952C95.8325 20.8494 96.4565 20.7812 97 20.7812V18.7812C96.2935 18.7812 95.5321 18.8694 94.7206 19.0361L95.1231 20.9952ZM97 20.7812C98.0804 20.7812 98.7785 20.9996 99.2132 21.312L100.381 19.688C99.4819 19.0421 98.3154 18.7812 97 18.7812V20.7812ZM99.2277 21.3222C99.6004 21.5802 99.8828 22.0219 99.9572 22.8405L101.949 22.6595C101.836 21.4156 101.348 20.3573 100.366 19.6778L99.2277 21.3222ZM99.9561 22.8267C99.9851 23.2035 100 23.6202 100 24.0781H102C102 23.5777 101.984 23.109 101.95 22.6733L99.9561 22.8267ZM100 24.0781C100 25.6057 99.8641 27.4357 99.5864 29.5744L101.57 29.8319C101.855 27.6373 102 25.7172 102 24.0781H100ZM99.5864 29.5744C99.3069 31.7279 98.9336 34.2483 98.466 37.1371L100.44 37.4567C100.91 34.5537 101.287 32.0117 101.57 29.8319L99.5864 29.5744ZM98.4648 37.1448L98.3398 37.9573L100.316 38.2614L100.441 37.4489L98.4648 37.1448ZM99.2733 39.1079L103.258 39.3266L103.367 37.3296L99.3829 37.1109L99.2733 39.1079ZM104.267 38.6271L105.892 33.4396L103.983 32.8417L102.358 38.0292L104.267 38.6271ZM104.98 34.1397C105.391 34.1222 105.882 34.1521 106.461 34.2389L106.758 32.2611C106.087 32.1604 105.464 32.1173 104.895 32.1415L104.98 34.1397ZM106.463 34.2393C107.052 34.3261 107.53 34.4427 107.908 34.5804L108.592 32.7008C108.054 32.5052 107.438 32.3614 106.755 32.2607L106.463 34.2393ZM107.316 33.9983C107.462 34.379 107.622 35.0684 107.776 36.1285L109.755 35.8403C109.597 34.7545 109.413 33.8814 109.184 33.283L107.316 33.9983ZM107.778 36.1393C107.937 37.1533 108.016 38.1431 108.016 39.1094H110.016C110.016 38.034 109.928 36.9405 109.754 35.8294L107.778 36.1393ZM108.016 39.1094C108.016 40.7718 107.759 41.6845 107.457 42.0993L109.074 43.2757C109.773 42.3155 110.016 40.8428 110.016 39.1094H108.016ZM107.466 42.0875C107.317 42.2862 107.085 42.4921 106.731 42.6893L107.706 44.4357C108.249 44.1329 108.715 43.7555 109.066 43.2875L107.466 42.0875ZM106.738 42.6854C106.375 42.8842 105.99 43.0359 105.581 43.1405L106.076 45.0783C106.645 44.9328 107.187 44.7199 107.699 44.4396L106.738 42.6854ZM105.556 43.1471C105.141 43.2643 104.802 43.3125 104.531 43.3125V45.3125C105.031 45.3125 105.557 45.2252 106.1 45.0717L105.556 43.1471ZM104.531 43.3125C104.051 43.3125 103.438 43.2095 102.677 42.9685L102.073 44.8753C102.958 45.1551 103.782 45.3125 104.531 45.3125V43.3125ZM102.688 42.972C101.915 42.7179 101.156 42.3997 100.41 42.0166L99.4966 43.7959C100.333 44.2253 101.189 44.5842 102.062 44.8718L102.688 42.972ZM100.419 42.0213C99.6669 41.6255 99.0765 41.2441 98.6324 40.8816L97.3676 42.4309C97.9444 42.9017 98.6561 43.3536 99.4874 43.7912L100.419 42.0213ZM97.1338 41.1565C96.719 41.8755 96.2645 42.39 95.786 42.7387L96.964 44.355C97.7146 43.8079 98.3435 43.062 98.8662 42.156L97.1338 41.1565ZM95.786 42.7387C95.3528 43.0545 94.7781 43.2625 94.0101 43.3148L94.1461 45.3102C95.2114 45.2375 96.168 44.9351 96.964 44.355L95.786 42.7387ZM94.2388 43.3255C94.0479 43.2944 93.8254 43.1915 93.5697 42.9216L92.1178 44.2971C92.6121 44.8189 93.2125 45.1847 93.9174 45.2995L94.2388 43.3255ZM93.5697 42.9216C93.3102 42.6477 93.0789 42.2676 92.897 41.7478L91.0093 42.4085C91.2648 43.1387 91.6273 43.7793 92.1178 44.2971L93.5697 42.9216ZM92.897 41.7478C92.719 41.2391 92.625 40.6749 92.625 40.0469H90.625C90.625 40.8772 90.7498 41.6671 91.0093 42.4085L92.897 41.7478ZM113.641 26.6406L114.16 27.495L114.166 27.4918L113.641 26.6406ZM123.25 26.6562L122.7 27.4917L122.706 27.495L123.25 26.6562ZM125.734 29.875L124.788 30.1977L124.79 30.2041L125.734 29.875ZM125.5 39.75L124.588 39.3407L124.586 39.3439L125.5 39.75ZM122.656 43.0938L123.198 43.9343L123.2 43.9331L122.656 43.0938ZM111.859 41.7031L111.05 42.2907L111.052 42.293L111.859 41.7031ZM119.625 39.6094L120.213 40.4181L120.386 40.2927L120.492 40.1078L119.625 39.6094ZM120.203 33.0938L119.213 33.2372L119.214 33.2392L120.203 33.0938ZM119.766 31.4062L120.674 30.9872L120.617 30.8639L120.529 30.7603L119.766 31.4062ZM119.078 31.1094L118.871 32.0876L118.885 32.0906L118.899 32.0932L119.078 31.1094ZM116.859 31.1719L116.358 30.3064L116.128 30.4396L115.995 30.6693L116.859 31.1719ZM116.688 39.3281L115.724 39.5966L115.789 39.8291L115.953 40.0064L116.688 39.3281ZM117.453 39.6406L117.267 40.6232L117.28 40.6256L117.293 40.6277L117.453 39.6406ZM110.953 34.7656C110.953 32.9848 111.239 31.4914 111.776 30.2591L109.943 29.4596C109.272 30.9982 108.953 32.7756 108.953 34.7656H110.953ZM111.776 30.2591C112.301 29.0558 113.092 28.1446 114.16 27.495L113.121 25.7863C111.689 26.6575 110.626 27.8921 109.943 29.4596L111.776 30.2591ZM114.166 27.4918C115.219 26.8423 116.592 26.4844 118.344 26.4844V24.4844C116.325 24.4844 114.562 24.8973 113.116 25.7895L114.166 27.4918ZM118.344 26.4844C120.318 26.4844 121.736 26.8569 122.7 27.4917L123.8 25.8208C122.389 24.8931 120.536 24.4844 118.344 24.4844V26.4844ZM122.706 27.495C123.7 28.1404 124.389 29.0289 124.788 30.1977L126.681 29.5523C126.142 27.9711 125.175 26.7138 123.794 25.8175L122.706 27.495ZM124.79 30.2041C125.222 31.4424 125.453 33.0062 125.453 34.9219H127.453C127.453 32.8584 127.205 31.0576 126.679 29.5459L124.79 30.2041ZM125.453 34.9219C125.453 36.6054 125.157 38.0719 124.588 39.3408L126.412 40.1592C127.114 38.5948 127.453 36.8425 127.453 34.9219H125.453ZM124.586 39.3439C124.039 40.5759 123.218 41.5387 122.113 42.2544L123.2 43.9331C124.636 43.003 125.711 41.7366 126.414 40.1561L124.586 39.3439ZM122.114 42.2533C121.048 42.9405 119.7 43.3125 118.016 43.3125V45.3125C119.998 45.3125 121.743 44.872 123.198 43.9342L122.114 42.2533ZM118.016 43.3125C115.391 43.3125 113.693 42.5174 112.667 41.1132L111.052 42.293C112.568 44.368 114.973 45.3125 118.016 45.3125V43.3125ZM112.669 41.1155C111.557 39.5847 110.953 37.4984 110.953 34.7656H108.953C108.953 37.7829 109.62 40.3216 111.05 42.2907L112.669 41.1155ZM118.656 40.7344C118.942 40.7344 119.203 40.7235 119.425 40.6949C119.589 40.6737 119.931 40.6235 120.213 40.4181L119.037 38.8006C119.095 38.7586 119.144 38.7346 119.171 38.7225C119.2 38.7099 119.22 38.7041 119.225 38.7025C119.234 38.7 119.219 38.7048 119.169 38.7113C119.068 38.7244 118.902 38.7344 118.656 38.7344V40.7344ZM120.492 40.1078C120.816 39.5436 121.024 38.8221 121.159 38.006L119.185 37.6815C119.069 38.3863 118.913 38.8419 118.758 39.1109L120.492 40.1078ZM121.159 38.006C121.294 37.1847 121.359 36.3069 121.359 35.375H119.359C119.359 36.2139 119.3 36.982 119.185 37.6815L121.159 38.006ZM121.359 35.375C121.359 34.5202 121.305 33.7107 121.192 32.9483L119.214 33.2392C119.31 33.8935 119.359 34.6048 119.359 35.375H121.359ZM121.193 32.9503C121.082 32.1877 120.919 31.5181 120.674 30.9872L118.858 31.8253C118.988 32.1069 119.116 32.5623 119.213 33.2372L121.193 32.9503ZM120.529 30.7603C120.176 30.3426 119.64 30.1952 119.257 30.1255L118.899 32.0932C118.959 32.1042 119.007 32.1153 119.043 32.1256C119.08 32.136 119.102 32.1443 119.111 32.1485C119.121 32.1529 119.114 32.1506 119.095 32.1378C119.076 32.1248 119.041 32.0978 119.002 32.0522L120.529 30.7603ZM119.286 30.1311C118.864 30.0417 118.419 30 117.953 30V32C118.3 32 118.605 32.0312 118.871 32.0876L119.286 30.1311ZM117.953 30C117.656 30 117.377 30.0157 117.126 30.0551C116.887 30.0926 116.609 30.1611 116.358 30.3064L117.36 32.0373C117.307 32.0681 117.31 32.0506 117.436 32.0308C117.551 32.0129 117.719 32 117.953 32V30ZM115.995 30.6693C115.35 31.7786 115.078 33.2231 115.078 34.9062H117.078C117.078 33.4019 117.327 32.3568 117.724 31.6745L115.995 30.6693ZM115.078 34.9062C115.078 35.7073 115.139 36.5215 115.261 37.3482L117.239 37.058C117.132 36.3223 117.078 35.6052 117.078 34.9062H115.078ZM115.261 37.3482C115.38 38.1633 115.534 38.9137 115.724 39.5966L117.651 39.0597C117.487 38.4717 117.349 37.8055 117.239 37.058L115.261 37.3482ZM115.953 40.0064C116.316 40.3997 116.864 40.5468 117.267 40.6232L117.639 38.6581C117.487 38.6293 117.396 38.6006 117.351 38.582C117.329 38.5732 117.327 38.5706 117.339 38.5778C117.35 38.5848 117.383 38.6069 117.422 38.6498L115.953 40.0064ZM117.293 40.6277C117.735 40.6994 118.19 40.7344 118.656 40.7344V38.7344C118.29 38.7344 117.942 38.7069 117.613 38.6535L117.293 40.6277ZM128.141 31.3906L127.196 31.72L127.386 32.2642L127.952 32.3727L128.141 31.3906ZM127.625 28.1406L126.682 27.8091L126.625 27.9701V28.1406H127.625ZM129.031 26.2188L128.429 25.4202L128.423 25.4247L129.031 26.2188ZM133.781 26.3438L133.062 27.0381L133.068 27.0445L133.074 27.0509L133.781 26.3438ZM135.328 29.0938L136.27 28.7574L136.27 28.7564L135.328 29.0938ZM137.078 39.5469L136.08 39.6021L136.13 40.5148L137.044 40.5463L137.078 39.5469ZM137.531 39.5625L137.497 40.5619L138.139 40.584L138.426 40.0097L137.531 39.5625ZM138.719 35.6406L139.7 35.8333L139.7 35.8321L138.719 35.6406ZM139.234 30.7812L140.234 30.7881L140.24 29.9429L139.408 29.7964L139.234 30.7812ZM137.281 30.4375L136.315 30.6939L136.479 31.3116L137.108 31.4224L137.281 30.4375ZM137 29.0938L136.009 29.2242L136.009 29.2277L137 29.0938ZM136.922 27.7969L135.923 27.7612L135.922 27.779V27.7969H136.922ZM136.938 27.3594L136.115 26.7902L135.949 27.031L135.938 27.3237L136.938 27.3594ZM139.438 25.7812L139.131 24.8294L139.126 24.8309L139.438 25.7812ZM144.531 34.6875L145.485 34.9873L145.486 34.9858L144.531 34.6875ZM142.047 39.9062L141.21 39.3589L141.208 39.3626L142.047 39.9062ZM138.25 44L138.628 44.9258L138.743 44.879L138.843 44.8055L138.25 44ZM134.594 44L134.93 43.0583L134.923 43.0556L134.915 43.053L134.594 44ZM133.297 43.375L132.339 43.6623L132.431 43.9683L132.683 44.1644L133.297 43.375ZM132.969 42.2812L132.01 42.5643L132.011 42.5686L132.969 42.2812ZM130.938 35.7188L129.987 36.0301L129.988 36.0317L130.938 35.7188ZM129.281 31.6094L130.154 31.122L129.927 30.7151L129.47 30.6273L129.281 31.6094ZM129.085 31.0613C128.952 30.6804 128.84 30.2238 128.753 29.6851L126.778 30.0024C126.879 30.6304 127.017 31.205 127.196 31.72L129.085 31.0613ZM128.753 29.6851C128.667 29.1506 128.625 28.636 128.625 28.1406H126.625C126.625 28.7494 126.677 29.3703 126.778 30.0024L128.753 29.6851ZM128.568 28.4721C128.773 27.8901 129.122 27.4084 129.639 27.0128L128.423 25.4247C127.607 26.05 127.019 26.8495 126.682 27.8091L128.568 28.4721ZM129.633 27.0173C130.111 26.6572 130.719 26.4531 131.516 26.4531V24.4531C130.354 24.4531 129.306 24.7594 128.429 25.4202L129.633 27.0173ZM131.516 26.4531C132.222 26.4531 132.704 26.667 133.062 27.0381L134.501 25.6494C133.713 24.833 132.684 24.4531 131.516 24.4531V26.4531ZM133.074 27.0509C133.508 27.4851 133.962 28.245 134.387 29.4311L136.27 28.7564C135.799 27.4425 135.221 26.3691 134.488 25.6366L133.074 27.0509ZM134.386 29.4301C134.83 30.6714 135.197 32.162 135.482 33.9107L137.456 33.5893C137.157 31.7547 136.764 30.1411 136.27 28.7574L134.386 29.4301ZM135.482 33.9107C135.767 35.6629 135.967 37.5596 136.08 39.6021L138.077 39.4917C137.96 37.3883 137.754 35.4205 137.456 33.5893L135.482 33.9107ZM137.044 40.5463L137.497 40.5619L137.566 38.5631L137.113 38.5475L137.044 40.5463ZM138.426 40.0097C138.943 38.976 139.359 37.5678 139.7 35.8333L137.737 35.448C137.411 37.1092 137.037 38.3156 136.637 39.1153L138.426 40.0097ZM139.7 35.8321C140.044 34.071 140.223 32.389 140.234 30.7881L138.234 30.7744C138.224 32.236 138.06 33.7936 137.737 35.4491L139.7 35.8321ZM139.408 29.7964L137.455 29.4526L137.108 31.4224L139.061 31.7661L139.408 29.7964ZM138.248 30.1811C138.12 29.6977 138.036 29.2923 137.991 28.9598L136.009 29.2277C136.068 29.666 136.172 30.1564 136.315 30.6939L138.248 30.1811ZM137.991 28.9633C137.946 28.6174 137.922 28.2293 137.922 27.7969H135.922C135.922 28.302 135.95 28.7784 136.009 29.2242L137.991 28.9633ZM137.921 27.8326L137.937 27.3951L135.938 27.3237L135.923 27.7612L137.921 27.8326ZM137.76 27.9286C137.845 27.8047 138.042 27.6061 138.43 27.3477L137.32 25.6836C136.833 26.0084 136.405 26.3724 136.115 26.7902L137.76 27.9286ZM138.43 27.3477C138.778 27.1155 139.213 26.9069 139.749 26.7316L139.126 24.8309C138.453 25.0514 137.847 25.3325 137.32 25.6836L138.43 27.3477ZM139.744 26.7331C140.256 26.5681 140.793 26.4844 141.359 26.4844V24.4844C140.592 24.4844 139.848 24.5985 139.131 24.8294L139.744 26.7331ZM141.359 26.4844C142.548 26.4844 143.256 26.7819 143.674 27.2018C144.093 27.6225 144.391 28.3355 144.391 29.5312H146.391C146.391 28.0291 146.016 26.7186 145.091 25.7904C144.166 24.8614 142.858 24.4844 141.359 24.4844V26.4844ZM144.391 29.5312C144.391 31.0166 144.125 32.634 143.577 34.3892L145.486 34.9858C146.083 33.0743 146.391 31.2542 146.391 29.5312H144.391ZM143.577 34.3877C143.033 36.12 142.245 37.7766 141.21 39.3589L142.884 40.4536C144.015 38.7234 144.884 36.9008 145.485 34.9873L143.577 34.3877ZM141.208 39.3626C140.194 40.9265 139.01 42.1994 137.657 43.1945L138.843 44.8055C140.407 43.6547 141.753 42.1985 142.886 40.4499L141.208 39.3626ZM137.872 43.0742C137.531 43.2133 136.985 43.3125 136.172 43.3125V45.3125C137.109 45.3125 137.948 45.2034 138.628 44.9258L137.872 43.0742ZM136.172 43.3125C135.848 43.3125 135.438 43.2397 134.93 43.0583L134.257 44.9417C134.916 45.177 135.558 45.3125 136.172 45.3125V43.3125ZM134.915 43.053C134.372 42.8688 134.062 42.7036 133.911 42.5856L132.683 44.1644C133.094 44.484 133.649 44.7354 134.272 44.947L134.915 43.053ZM134.255 43.0877L133.927 41.9939L132.011 42.5686L132.339 43.6623L134.255 43.0877ZM133.928 41.9982C133.176 39.4499 132.496 37.2519 131.887 35.4058L129.988 36.0317C130.588 37.8523 131.262 40.0292 132.01 42.5643L133.928 41.9982ZM131.888 35.4074C131.278 33.5463 130.702 32.1033 130.154 31.122L128.408 32.0967C128.86 32.9071 129.389 34.2037 129.987 36.0301L131.888 35.4074ZM129.47 30.6273L128.329 30.4085L127.952 32.3727L129.093 32.5915L129.47 30.6273ZM150.688 26.7344L151.234 27.5717L151.236 27.5706L150.688 26.7344ZM158.406 25.8438L158.171 26.8157L158.181 26.818L158.406 25.8438ZM160.922 27L161.548 26.2203L161.541 26.2145L160.922 27ZM162.297 29.0312L161.348 29.3475L161.351 29.3546L161.353 29.3616L162.297 29.0312ZM162.562 33.8906L163.42 34.4051L163.519 34.2402L163.55 34.0503L162.562 33.8906ZM161.828 34.7188L162.503 35.4568L162.509 35.4516L162.514 35.4463L161.828 34.7188ZM160.547 35.7031L159.996 34.8684L160.547 35.7031ZM159.125 36.4531L159.196 37.4506L159.346 37.4399L159.485 37.3859L159.125 36.4531ZM153.047 36.1406L153.193 35.1513L151.932 34.9653L152.051 36.2343L153.047 36.1406ZM153.859 38.4531L153.04 39.0257L153.859 38.4531ZM156.5 39.4062L156.402 38.4111L156.4 38.4112L156.5 39.4062ZM158.719 38.9062L159.024 39.8584L159.032 39.8561L158.719 38.9062ZM161.266 37.9375L161.973 37.2304L161.492 36.7501L160.869 37.0195L161.266 37.9375ZM162.531 40.8281L163.289 41.4806L163.568 41.1562L163.526 40.73L162.531 40.8281ZM160.953 42.2031L160.357 41.4004L160.351 41.4045L160.953 42.2031ZM158.312 43.6719L158.692 44.5972L158.7 44.5939L158.312 43.6719ZM150.656 43.0781L150.088 43.9014L150.097 43.9069L150.656 43.0781ZM147.906 39.7031L146.988 40.0987L146.991 40.1068L147.906 39.7031ZM157.047 31.3281L158.039 31.2019L157.998 30.8817L157.778 30.6458L157.047 31.3281ZM156.312 30.9688L156.049 31.9335L156.063 31.9373L156.077 31.9406L156.312 30.9688ZM154.312 30.9062L154.148 29.9198L154.143 29.9208L154.312 30.9062ZM153.766 31.0781L153.059 30.371L152.946 30.4836L152.874 30.6256L153.766 31.0781ZM153.094 33.4531L152.099 33.3478L151.97 34.5673L153.191 34.4484L153.094 33.4531ZM157.266 33.0469L157.363 34.0422L158.388 33.9423L158.258 32.9206L157.266 33.0469ZM147.984 34.9219C147.984 33.232 148.267 31.7594 148.81 30.486L146.971 29.7015C146.306 31.2614 145.984 33.0076 145.984 34.9219H147.984ZM148.81 30.486C149.339 29.2469 150.143 28.2838 151.234 27.5717L150.141 25.897C148.711 26.8308 147.651 28.1073 146.971 29.7015L148.81 30.486ZM151.236 27.5706C152.308 26.8678 153.688 26.4844 155.438 26.4844V24.4844C153.395 24.4844 151.609 24.9343 150.139 25.8981L151.236 27.5706ZM155.438 26.4844C156.346 26.4844 157.256 26.5942 158.171 26.8157L158.642 24.8718C157.577 24.6141 156.509 24.4844 155.438 24.4844V26.4844ZM158.181 26.818C159.05 27.0192 159.748 27.3484 160.303 27.7855L161.541 26.2145C160.72 25.5682 159.742 25.1266 158.632 24.8695L158.181 26.818ZM160.296 27.7796C160.768 28.1588 161.122 28.6687 161.348 29.3475L163.246 28.715C162.909 27.7063 162.347 26.862 161.548 26.2204L160.296 27.7796ZM161.353 29.3616C161.602 30.0736 161.734 30.8869 161.734 31.8125H163.734C163.734 30.6964 163.575 29.6556 163.241 28.7009L161.353 29.3616ZM161.734 31.8125C161.734 32.433 161.682 33.0723 161.575 33.7309L163.55 34.0503C163.672 33.2923 163.734 32.5461 163.734 31.8125H161.734ZM161.705 33.3761C161.655 33.4603 161.495 33.6584 161.142 33.9912L162.514 35.4463C162.89 35.0916 163.22 34.7376 163.42 34.4051L161.705 33.3761ZM161.153 33.9807C160.834 34.2728 160.45 34.5692 159.996 34.8684L161.097 36.5379C161.623 36.1912 162.093 35.8314 162.503 35.4568L161.153 33.9807ZM159.996 34.8684C159.555 35.1592 159.145 35.3734 158.765 35.5203L159.485 37.3859C160.022 37.1787 160.559 36.8929 161.097 36.5379L159.996 34.8684ZM159.054 35.4557C158.642 35.4851 158.212 35.5 157.766 35.5V37.5C158.257 37.5 158.733 37.4836 159.196 37.4506L159.054 35.4557ZM157.766 35.5C156.972 35.5 156.168 35.4649 155.352 35.3943L155.18 37.3869C156.051 37.4622 156.913 37.5 157.766 37.5V35.5ZM155.352 35.3943C154.522 35.3226 153.803 35.2414 153.193 35.1513L152.901 37.1299C153.561 37.2274 154.322 37.3128 155.18 37.3869L155.352 35.3943ZM152.051 36.2343C152.149 37.2723 152.472 38.2124 153.04 39.0257L154.679 37.8805C154.331 37.3813 154.111 36.7797 154.042 36.0469L152.051 36.2343ZM153.04 39.0257C153.732 40.017 154.812 40.4375 156.047 40.4375V38.4375C155.282 38.4375 154.904 38.2018 154.679 37.8805L153.04 39.0257ZM156.047 40.4375C156.194 40.4375 156.388 40.4224 156.6 40.4013L156.4 38.4112C156.195 38.4317 156.087 38.4375 156.047 38.4375V40.4375ZM156.598 40.4014C157.325 40.3299 158.137 40.1432 159.024 39.8584L158.413 37.9541C157.613 38.2109 156.946 38.3576 156.402 38.4111L156.598 40.4014ZM159.032 39.8561C159.915 39.5653 160.792 39.2317 161.662 38.8555L160.869 37.0195C160.052 37.3725 159.231 37.6847 158.406 37.9564L159.032 39.8561ZM160.559 38.6446C160.895 38.9809 161.11 39.2851 161.237 39.5531L163.044 38.6969C162.796 38.1732 162.428 37.6858 161.973 37.2304L160.559 38.6446ZM161.237 39.5531C161.353 39.7972 161.468 40.2329 161.536 40.9262L163.526 40.73C163.449 39.9442 163.304 39.2444 163.044 38.6969L161.237 39.5531ZM161.773 40.1756C161.523 40.4664 161.067 40.8727 160.357 41.4004L161.549 43.0059C162.297 42.4502 162.894 41.9398 163.289 41.4806L161.773 40.1756ZM160.351 41.4045C159.713 41.8856 158.909 42.3367 157.925 42.7499L158.7 44.5939C159.799 44.132 160.756 43.604 161.555 43.0017L160.351 41.4045ZM157.933 42.7466C157.013 43.1239 156.053 43.3125 155.047 43.3125V45.3125C156.311 45.3125 157.529 45.074 158.692 44.5971L157.933 42.7466ZM155.047 43.3125C153.505 43.3125 152.244 42.9435 151.216 42.2494L150.097 43.9069C151.506 44.8586 153.172 45.3125 155.047 45.3125V43.3125ZM151.224 42.2549C150.176 41.5325 149.376 40.5566 148.821 39.2995L146.991 40.1068C147.687 41.683 148.719 42.9571 150.089 43.9013L151.224 42.2549ZM148.825 39.3076C148.271 38.021 147.984 36.5643 147.984 34.9219H145.984C145.984 36.8003 146.313 38.5311 146.988 40.0987L148.825 39.3076ZM157.778 30.6458C157.437 30.281 156.97 30.0991 156.548 29.9969L156.077 31.9406C156.198 31.9699 156.273 31.9991 156.314 32.0193C156.356 32.0397 156.345 32.0422 156.316 32.0104L157.778 30.6458ZM156.576 30.004C156.142 29.8857 155.694 29.8281 155.234 29.8281V31.8281C155.525 31.8281 155.796 31.8643 156.049 31.9335L156.576 30.004ZM155.234 29.8281C154.875 29.8281 154.512 29.8592 154.148 29.9199L154.477 31.8926C154.738 31.8492 154.99 31.8281 155.234 31.8281V29.8281ZM154.143 29.9208C153.97 29.9505 153.801 29.9868 153.649 30.0343C153.544 30.0675 153.275 30.1547 153.059 30.371L154.473 31.7852C154.423 31.8349 154.378 31.8684 154.347 31.8888C154.315 31.9097 154.29 31.923 154.275 31.9304C154.246 31.9443 154.234 31.947 154.249 31.9423C154.262 31.9382 154.287 31.931 154.329 31.9217C154.369 31.9126 154.42 31.9025 154.482 31.8917L154.143 29.9208ZM152.874 30.6256C152.458 31.4459 152.204 32.3579 152.099 33.3478L154.088 33.5584C154.171 32.7775 154.365 32.1062 154.657 31.5307L152.874 30.6256ZM153.191 34.4484L157.363 34.0422L157.169 32.0516L152.997 32.4578L153.191 34.4484ZM158.258 32.9206L158.039 31.2019L156.055 31.4544L156.274 33.1731L158.258 32.9206Z" fill="#2D7676" mask="url(#path-8-outside-2_14_95)"/>
<defs>
<filter id="filter0_df_14_95" x="41.922" y="14.3269" width="52.9803" height="52.1973" filterUnits="userSpaceOnUse" color-interpolation-filters="sRGB">
<feFlood flood-opacity="0" result="BackgroundImageFix"/>
<feColorMatrix in="SourceAlpha" type="matrix" values="0 0 0 0 0 0 0 0 0 0 0 0 0 0 0 0 0 0 127 0" result="hardAlpha"/>
<feOffset dy="4"/>
<feGaussianBlur stdDeviation="2"/>
<feComposite in2="hardAlpha" operator="out"/>
<feColorMatrix type="matrix" values="0 0 0 0 0 0 0 0 0 0 0 0 0 0 0 0 0 0 0.25 0"/>
<feBlend mode="normal" in2="BackgroundImageFix" result="effect1_dropShadow_14_95"/>
<feBlend mode="normal" in="SourceGraphic" in2="effect1_dropShadow_14_95" result="shape"/>
<feGaussianBlur stdDeviation="0.5" result="effect2_foregroundBlur_14_95"/>
</filter>
</defs>
</svg>
